#N canvas 2074 112 592 509 12;
#X obj 83 116 notein, f 14;
#X floatatom 83 139 5 0 0 0 - - -;
#X floatatom 130 214 5 0 0 0 - - -;
#X obj 83 161 mtof;
#X msg 130 262 \$1 20;
#X obj 83 184 osc~;
#X obj 93 338 *~;
#X obj 130 285 line~;
#X obj 130 236 / 1270;
#X obj 93 361 dac~;
#X text 142 140 note number to play;
#X text 144 161 mtof converts to frequency;
#X text 192 211 Velocity of note 0-127;
#X text 191 260 <- send message to ramp to value in 20ms;
#X connect 0 0 1 0;
#X connect 0 1 2 0;
#X connect 1 0 3 0;
#X connect 2 0 8 0;
#X connect 3 0 5 0;
#X connect 4 0 7 0;
#X connect 5 0 6 0;
#X connect 6 0 9 0;
#X connect 7 0 6 1;
#X connect 8 0 4 0;
