#N canvas 2170 -62 851 788 12;
#X obj 55 413 *~;
#X obj 55 436 dac~;
#X obj 173 407 hsl 128 15 0 0.1 0 0 empty empty empty -2 -8 0 10 -262144
-1 -1 25500 1;
#N canvas 1530 -20 708 736 myEnvPatch 0;
#X obj 51 174 bob~, f 15;
#X floatatom 153 152 5 0 0 0 - - -;
#X text 192 150 filter Q;
#X obj 49 82 phasor~ 400;
#N canvas 1743 64 588 541 filterSweep 0;
#X obj 135 165 line~;
#X obj 114 86 t b b;
#X obj 113 54 bng 15 250 50 0 empty empty empty 17 7 0 10 -262144 -1
-1;
#X msg 86 121 5000;
#X msg 136 130 100 100;
#X obj 108 19 inlet;
#X obj 135 205 outlet~;
#X connect 0 0 6 0;
#X connect 1 0 4 0;
#X connect 1 1 3 0;
#X connect 2 0 1 0;
#X connect 3 0 0 0;
#X connect 4 0 0 0;
#X connect 5 0 2 0;
#X restore 102 132 pd filterSweep;
#X obj 100 27 bng 15 250 50 0 empty empty empty 17 7 0 10 -262144 -1
-1;
#N canvas 1711 179 553 453 volumeEnvelope 0;
#X obj 97 6 inlet;
#X obj 97 29 bng 15 250 50 0 empty empty empty 17 7 0 10 -262144 -1
-1;
#X obj 93 138 line~;
#X msg 37 76 1 10;
#X msg 97 87 0 100;
#X obj 93 161 outlet~;
#X obj 97 62 delay 500;
#X connect 0 0 1 0;
#X connect 1 0 3 0;
#X connect 1 0 6 0;
#X connect 2 0 5 0;
#X connect 3 0 2 0;
#X connect 4 0 2 0;
#X connect 6 0 4 0;
#X restore 72 207 pd volumeEnvelope;
#X obj 54 249 *~;
#X obj 64 1 inlet;
#X obj 54 272 outlet~;
#X obj 12 24 inlet;
#X connect 0 0 7 0;
#X connect 1 0 0 2;
#X connect 3 0 0 0;
#X connect 4 0 0 1;
#X connect 5 0 4 0;
#X connect 5 0 6 0;
#X connect 6 0 7 1;
#X connect 7 0 9 0;
#X connect 8 0 5 0;
#X connect 10 0 3 0;
#X coords 0 0 0.5 0.5 0 0 0;
#X restore 47 292 pd myEnvPatch;
#X obj 134 205 bng 15 250 50 0 empty empty empty 17 7 0 10 -262144
-1 -1;
#X floatatom 35 265 5 0 0 0 - - -;
#N canvas 1530 -20 708 736 myEnvPatch 0;
#X obj 51 174 bob~, f 15;
#X floatatom 153 152 5 0 0 0 - - -;
#X text 192 150 filter Q;
#X obj 49 82 phasor~ 400;
#N canvas 1743 64 588 541 filterSweep 0;
#X obj 135 165 line~;
#X obj 114 86 t b b;
#X obj 113 54 bng 15 250 50 0 empty empty empty 17 7 0 10 -262144 -1
-1;
#X msg 86 121 5000;
#X msg 136 130 100 100;
#X obj 108 19 inlet;
#X obj 135 205 outlet~;
#X connect 0 0 6 0;
#X connect 1 0 4 0;
#X connect 1 1 3 0;
#X connect 2 0 1 0;
#X connect 3 0 0 0;
#X connect 4 0 0 0;
#X connect 5 0 2 0;
#X restore 102 132 pd filterSweep;
#X obj 100 27 bng 15 250 50 0 empty empty empty 17 7 0 10 -262144 -1
-1;
#N canvas 1711 179 553 453 volumeEnvelope 0;
#X obj 97 6 inlet;
#X obj 97 29 bng 15 250 50 0 empty empty empty 17 7 0 10 -262144 -1
-1;
#X obj 93 138 line~;
#X msg 37 76 1 10;
#X msg 97 87 0 100;
#X obj 93 161 outlet~;
#X obj 97 62 delay 500;
#X connect 0 0 1 0;
#X connect 1 0 3 0;
#X connect 1 0 6 0;
#X connect 2 0 5 0;
#X connect 3 0 2 0;
#X connect 4 0 2 0;
#X connect 6 0 4 0;
#X restore 72 207 pd volumeEnvelope;
#X obj 54 249 *~;
#X obj 64 1 inlet;
#X obj 54 272 outlet~;
#X obj 12 24 inlet;
#X connect 0 0 7 0;
#X connect 1 0 0 2;
#X connect 3 0 0 0;
#X connect 4 0 0 1;
#X connect 5 0 4 0;
#X connect 5 0 6 0;
#X connect 6 0 7 1;
#X connect 7 0 9 0;
#X connect 8 0 5 0;
#X connect 10 0 3 0;
#X coords 0 0 0.5 0.5 0 0 0;
#X restore 165 312 pd myEnvPatch;
#X obj 266 238 bng 15 250 50 0 empty empty empty 17 7 0 10 -262144
-1 -1;
#X obj 65 86 bng 15 250 50 0 empty empty empty 17 7 0 10 -262144 -1
-1;
#X obj 65 104 send chordTrigger;
#X obj 130 174 receive chordTrigger;
#X obj 265 212 receive chordTrigger;
#X floatatom 212 81 5 0 0 0 - - -;
#X obj 212 103 s pitch;
#X obj 168 238 r pitch;
#X obj 168 261 * 1.5;
#X obj 17 237 r pitch;
#X floatatom 175 287 5 0 0 0 - - -;
#X connect 0 0 1 0;
#X connect 2 0 0 1;
#X connect 3 0 0 0;
#X connect 4 0 3 1;
#X connect 5 0 3 0;
#X connect 6 0 0 0;
#X connect 7 0 6 1;
#X connect 8 0 9 0;
#X connect 10 0 4 0;
#X connect 11 0 7 0;
#X connect 12 0 13 0;
#X connect 14 0 15 0;
#X connect 15 0 6 0;
#X connect 15 0 17 0;
#X connect 16 0 5 0;
