#N canvas 637 73 632 652 12;
#X obj 131 441 dac~;
#X floatatom 139 193 5 0 0 0 - - -;
#X obj 138 379 *~;
#X obj 198 266 tgl 25 0 empty empty empty 17 7 0 10 -262144 -1 -1 0
1;
#X obj 139 220 osc~;
#X text 231 265 on/off;
#X text 180 192 frequency;
#X msg 198 330 0.1;
#X obj 198 298 sel 1 0, f 9;
#X msg 229 354 0;
#X text 275 299 <- select will output a bang to the outlets that match
the input;
#X text 140 75 Simple sine wave oscillator toggle on/off by multiplying
the sine wave by 0.1 or 0;
#X connect 1 0 4 0;
#X connect 2 0 0 0;
#X connect 2 0 0 1;
#X connect 3 0 8 0;
#X connect 4 0 2 0;
#X connect 7 0 2 1;
#X connect 8 0 7 0;
#X connect 8 1 9 0;
#X connect 9 0 2 1;
