#N canvas 1624 131 1670 794 12;
#X obj 134 552 dac~;
#X floatatom 135 190 5 0 0 0 - - -;
#X obj 133 521 *~;
#X obj 135 272 osc~;
#X obj 187 488 line~;
#X floatatom 417 259 5 0 0 0 - - -;
#X msg 243 461 0 \$1;
#X floatatom 411 367 5 0 0 0 - - -;
#X text 466 260 attack time;
#X obj 186 328 f;
#X obj 243 437 f;
#X text 184 190 frequency;
#X obj 134 163 mtof;
#X floatatom 135 137 5 0 0 0 - - -;
#X text 187 135 MIDI note number (60 = middle C);
#X text 217 260 trigger;
#X obj 189 259 bng 25 250 50 0 empty empty empty 17 7 0 10 -261682
-1 -1;
#X obj 243 407 delay 100;
#X floatatom 411 312 5 0 0 0 - - -;
#X text 462 312 sustain time;
#X msg 187 352 0.1 \$1;
#X text 285 461 < go to 0 in \$1 ms;
#X obj 312 336 t b f;
#X obj 303 375 +;
#X text 318 406 <- delay decay;
#X text 462 367 release time;
#X msg 416 199 5;
#X msg 422 225 100;
#X text 113 25 Here [line~] is used to create an automatic AD envelope
\, the decay immediately follows the attack and sustain time (all in
ms).;
#X obj 722 292 tgl 15 0 empty empty empty 17 7 0 10 -262144 -1 -1 0
1;
#X floatatom 846 338 5 0 0 0 - - -;
#X floatatom 846 376 5 0 0 0 - - -;
#X text 890 338 attack time;
#X text 774 291 on/off;
#N canvas 0 23 524 475 AD-envelope 0;
#X obj 128 222 line~;
#X obj 131 93 sel 1 0;
#X msg 128 178 1 \$1;
#X msg 215 193 0 \$1;
#X obj 129 148 f;
#X obj 220 166 f;
#X obj 131 51 inlet;
#X obj 128 294 outlet~;
#X obj 206 17 inlet;
#X obj 278 69 inlet;
#X text 23 53 toggle on/off;
#X text 250 17 attack time;
#X text 324 68 decay time;
#X obj 331 100 loadbang;
#X msg 337 153 100;
#X msg 299 128 10;
#X text 376 135 initial values;
#X connect 0 0 7 0;
#X connect 1 0 4 0;
#X connect 1 1 5 0;
#X connect 2 0 0 0;
#X connect 3 0 0 0;
#X connect 4 0 2 0;
#X connect 5 0 3 0;
#X connect 6 0 1 0;
#X connect 8 0 4 1;
#X connect 9 0 5 1;
#X connect 13 0 14 0;
#X connect 13 0 15 0;
#X connect 14 0 5 1;
#X connect 15 0 4 1;
#X restore 723 403 pd AD-envelope;
#X floatatom 1309 322 5 0 0 0 - - -;
#X floatatom 1308 349 5 0 0 0 - - -;
#X text 1353 322 attack time;
#X floatatom 1308 374 5 0 0 0 - - -;
#X obj 1159 335 bng 25 250 50 0 empty empty empty 17 7 0 10 -262144
-1 -1;
#X text 1194 338 trigger;
#N canvas 0 25 706 475 AR-envelope-auto 0;
#X obj 132 300 line~;
#X msg 199 263 0 \$1;
#X obj 133 226 f;
#X obj 204 236 f;
#X obj 128 35 inlet;
#X obj 132 372 outlet~;
#X obj 206 31 inlet;
#X obj 344 20 inlet;
#X text 206 12 attack time;
#X obj 331 114 loadbang;
#X msg 337 167 100;
#X msg 299 142 10;
#X text 376 149 initial values;
#X obj 201 122 delay 100;
#X text 115 13 trigger;
#X obj 475 36 inlet;
#X text 474 14 on/sustain time;
#X msg 132 256 0.1 \$1;
#X obj 290 49 t b f;
#X obj 259 91 +;
#X text 343 -1 release time;
#X connect 0 0 5 0;
#X connect 1 0 0 0;
#X connect 2 0 17 0;
#X connect 3 0 1 0;
#X connect 4 0 13 0;
#X connect 4 0 2 0;
#X connect 6 0 2 1;
#X connect 6 0 19 0;
#X connect 7 0 3 1;
#X connect 9 0 10 0;
#X connect 9 0 11 0;
#X connect 10 0 3 1;
#X connect 11 0 2 1;
#X connect 11 0 19 0;
#X connect 13 0 3 0;
#X connect 15 0 18 0;
#X connect 17 0 0 0;
#X connect 18 0 19 0;
#X connect 18 1 19 1;
#X connect 19 0 13 1;
#X restore 1158 410 pd AR-envelope-auto;
#X text 1360 352 release time;
#X text 1360 377 release delay;
#X text 898 379 release time;
#X obj 768 493 tgl 15 0 empty empty empty 17 7 0 10 -262144 -1 -1 1
1;
#X obj 768 472 loadbang;
#X obj 768 510 metro 20;
#X obj 768 532 snapshot~;
#X floatatom 768 557 5 0 0 0 - - -;
#X obj 1208 481 tgl 15 0 empty empty empty 17 7 0 10 -262144 -1 -1
1 1;
#X obj 1208 460 loadbang;
#X obj 1208 498 metro 20;
#X obj 1208 520 snapshot~;
#X floatatom 1208 545 5 0 0 0 - - -;
#X text 665 218 This subpatch will sustain the envelope until it is
turned off by sending 0;
#X text 1124 222 This subpatch automatically releases after the release
time;
#X connect 1 0 3 0;
#X connect 2 0 0 0;
#X connect 2 0 0 1;
#X connect 3 0 2 0;
#X connect 4 0 2 1;
#X connect 5 0 9 1;
#X connect 5 0 23 0;
#X connect 6 0 4 0;
#X connect 7 0 10 1;
#X connect 9 0 20 0;
#X connect 10 0 6 0;
#X connect 12 0 1 0;
#X connect 13 0 12 0;
#X connect 16 0 9 0;
#X connect 16 0 17 0;
#X connect 17 0 10 0;
#X connect 18 0 22 0;
#X connect 20 0 4 0;
#X connect 22 0 23 0;
#X connect 22 1 23 1;
#X connect 23 0 17 1;
#X connect 26 0 5 0;
#X connect 27 0 5 0;
#X connect 29 0 34 0;
#X connect 30 0 34 1;
#X connect 31 0 34 2;
#X connect 34 0 48 0;
#X connect 35 0 41 1;
#X connect 36 0 41 2;
#X connect 38 0 41 3;
#X connect 39 0 41 0;
#X connect 41 0 53 0;
#X connect 45 0 47 0;
#X connect 46 0 45 0;
#X connect 47 0 48 0;
#X connect 48 0 49 0;
#X connect 50 0 52 0;
#X connect 51 0 50 0;
#X connect 52 0 53 0;
#X connect 53 0 54 0;
