#N canvas 540 92 900 699 12;
#X obj 123 133 osc~ 300;
#X obj 126 81 hsl 128 15 0 100 0 0 empty empty empty -2 -8 0 10 -262144
-1 -1 0 1;
#X obj 123 101 mtof;
#X floatatom 82 133 5 0 0 0 - - -;
#X obj 125 474 *~;
#X obj 297 239 osc~ 5;
#X obj 129 704 dac~;
#X floatatom 298 216 5 0 0 0 - - -;
#X obj 128 660 *~;
#X obj 301 194 hsl 128 15 0 10 0 0 empty empty empty -2 -8 0 10 -262144
-1 -1 0 1;
#X obj 267 516 vsl 25 100 0 0.1 0 0 empty empty empty 0 -9 0 10 -262144
-1 -1 0 1;
#X floatatom 267 629 5 0 0 0 - - -;
#X text 124 59 select midi note;
#X text 296 605 Volume;
#X text 297 173 LFO Rate;
#X text 373 224 Multiplying a signal by an LFO gives us a simple amplitude
modulation (volume goes up and down with the LFO);
#X obj 297 266 *~ 0.5;
#X obj 297 289 +~ 0.5;
#X floatatom 373 405 5 0 0 0 - - -;
#X obj 376 373 hsl 100 25 0 1 0 0 empty empty empty -2 -8 0 10 -204786
-1 -1 0 1;
#X floatatom 377 348 5 0 0 0 - - -;
#X obj 380 316 hsl 100 25 0 1 0 0 empty empty empty -2 -8 0 10 -204786
-1 -1 0 1;
#X obj 297 365 *~;
#X obj 296 425 +~;
#X obj 385 494 snapshot~;
#X obj 384 450 tgl 15 0 empty empty empty 17 7 0 10 -262144 -1 -1 0
1;
#X obj 384 470 metro 20;
#X obj 388 517 hsl 100 25 0 2 0 0 empty empty empty -2 -8 0 10 -228856
-1 -1 0 1;
#X text 412 403 offset;
#X text 424 346 Range / depth;
#X text 371 270 Some math to shift the range of the LFO to 0 - 1 making
it easier to set a new offset and depth.;
#X connect 0 0 4 0;
#X connect 1 0 2 0;
#X connect 2 0 0 0;
#X connect 2 0 3 0;
#X connect 4 0 8 0;
#X connect 5 0 16 0;
#X connect 7 0 5 0;
#X connect 8 0 6 0;
#X connect 8 0 6 1;
#X connect 9 0 7 0;
#X connect 10 0 8 1;
#X connect 10 0 11 0;
#X connect 16 0 17 0;
#X connect 17 0 22 0;
#X connect 18 0 23 1;
#X connect 19 0 18 0;
#X connect 20 0 22 1;
#X connect 21 0 20 0;
#X connect 22 0 23 0;
#X connect 23 0 24 0;
#X connect 23 0 4 1;
#X connect 24 0 27 0;
#X connect 25 0 26 0;
#X connect 26 0 24 0;
