#N canvas 734 217 557 641 12;
#X obj 122 329 osc~ 300;
#X obj 125 31 hsl 128 15 0 127 0 0 empty empty empty -2 -8 0 10 -262144
-1 -1 6300 1;
#X obj 122 51 mtof;
#X floatatom 129 75 5 0 0 0 - - -;
#X obj 123 502 dac~;
#X obj 122 458 *~;
#X obj 211 188 osc~;
#X floatatom 211 167 5 0 0 0 - - -;
#X obj 214 145 hsl 128 15 0 10 0 0 empty empty empty -2 -8 0 10 -262144
-1 -1 0 1;
#X obj 121 286 +~;
#X obj 211 244 *~;
#X obj 266 209 hsl 128 15 0 20 0 0 empty empty empty -2 -8 0 10 -262144
-1 -1 0 1;
#X obj 169 387 vsl 25 100 0 0.1 0 0 empty empty empty 0 -9 0 10 -262144
-1 -1 9000 1;
#X text 170 76 Carrier frequency;
#X floatatom 264 238 5 0 0 0 - - -;
#X text 253 166 Modulation Frequency;
#X floatatom 169 502 5 0 0 0 - - -;
#X text 199 473 Volume;
#X text 306 240 Modulation Depth;
#X connect 0 0 5 0;
#X connect 1 0 2 0;
#X connect 2 0 3 0;
#X connect 2 0 9 0;
#X connect 5 0 4 0;
#X connect 5 0 4 1;
#X connect 6 0 10 0;
#X connect 7 0 6 0;
#X connect 8 0 7 0;
#X connect 9 0 0 0;
#X connect 10 0 9 1;
#X connect 11 0 10 1;
#X connect 11 0 14 0;
#X connect 12 0 5 1;
#X connect 12 0 16 0;
