#N canvas 1874 181 865 722 12;
#X obj 156 247 hsl 100 25 0 127 0 0 empty empty empty -2 -8 0 10 -262144
-1 -1 0 1;
#X obj 153 280 mtof;
#X floatatom 153 305 5 0 0 0 - - -;
#X obj 237 587 dac~;
#X obj 236 543 *~;
#X obj 283 435 vsl 25 100 0 0.1 0 0 empty empty empty 0 -9 0 10 -262144
-1 -1 0 1;
#X floatatom 479 278 5 0 0 0 - - -;
#X text 523 280 Modulation Index;
#X floatatom 283 550 5 0 0 0 - - -;
#X text 313 521 Volume;
#X floatatom 307 281 5 0 0 0 - - -;
#X text 351 283 FM ratio;
#N canvas 0 25 713 715 fm-synth 1;
#X obj 121 360 osc~ 300;
#X floatatom 127 106 5 0 0 0 - - -;
#X obj 211 232 osc~;
#X floatatom 211 211 5 0 0 0 - - -;
#X obj 121 330 +~;
#X obj 209 299 *~;
#X text 1 107 Carrier frequency;
#X text 253 210 Modulation Frequency;
#X obj 211 182 *;
#X obj 264 281 *;
#X obj 212 155 t b f;
#X obj 279 243 t b f;
#X obj 127 65 inlet;
#X obj 239 67 inlet;
#X obj 347 86 inlet;
#X text 238 38 FM ratio;
#X text 350 50 Modulation Index;
#X text 120 39 Input freq;
#X obj 121 420 outlet~;
#X text 257 176 multiple the carrier and ratio to get the modulation
frequency;
#X text 325 284 multiply the index by the modulation frequency set
the amplitude of the modulation frequency;
#X connect 0 0 18 0;
#X connect 1 0 8 0;
#X connect 1 0 4 0;
#X connect 2 0 5 0;
#X connect 3 0 2 0;
#X connect 3 0 9 0;
#X connect 4 0 0 0;
#X connect 5 0 4 1;
#X connect 8 0 3 0;
#X connect 9 0 5 1;
#X connect 10 0 8 0;
#X connect 10 1 8 1;
#X connect 11 0 9 0;
#X connect 11 1 9 1;
#X connect 12 0 1 0;
#X connect 13 0 10 0;
#X connect 14 0 11 0;
#X restore 236 390 pd fm-synth;
#X text 194 307 Frequency;
#X obj 482 248 hsl 100 25 0 25 0 0 empty empty empty -2 -8 0 10 -262144
-1 -1 0 1;
#X obj 310 249 hsl 100 25 0 10 0 0 empty empty empty -2 -8 0 10 -262144
-1 -1 0 1;
#X msg 303 176 1;
#X msg 335 225 1.9;
#X msg 314 202 2;
#X text 365 224 non-integer sound detuned;
#X text 349 186 Integer ratios;
#X text 135 46 FM or Frequency Modulation Synthesis demo.;
#X text 133 68 The frequency of one oscillator is controlled by another
oscillator. If the controlling oscillator increases into the audio
range (above timbral. or so) the effect changes from that of vibrato
to timbral.;
#X connect 0 0 1 0;
#X connect 1 0 2 0;
#X connect 2 0 12 0;
#X connect 4 0 3 0;
#X connect 4 0 3 1;
#X connect 5 0 4 1;
#X connect 5 0 8 0;
#X connect 6 0 12 2;
#X connect 10 0 12 1;
#X connect 12 0 4 0;
#X connect 14 0 6 0;
#X connect 15 0 10 0;
#X connect 16 0 15 0;
#X connect 17 0 15 0;
#X connect 18 0 15 0;
