#N canvas 541 50 742 797 12;
#X obj 102 700 dac~;
#X floatatom 98 420 5 0 0 0 - - -;
#X obj 100 628 *~;
#X text 30 421 frequency;
#X obj 101 250 hsl 128 15 36 84 0 0 empty empty empty -2 -8 0 10 -262144
-1 -1 0 1;
#X obj 97 393 mtof;
#X floatatom 143 106 5 0 0 0 - - -;
#X msg 235 183 55;
#X msg 276 182 57;
#X text 358 145 send bang on specific keys;
#X text 417 183 < these numbers represent the notes to play it defines
the scale;
#X obj 98 465 phasor~;
#X msg 62 184 48;
#X msg 107 184 50;
#X msg 149 183 52;
#X msg 189 183 53;
#X obj 145 41 hsl 100 25 0 8 0 0 empty empty empty -2 -8 0 10 -262144
-1 -1 0 1;
#X obj 142 71 i;
#X obj 204 328 change;
#X obj 144 129 sel 0 1 2 3 4 5 6 7;
#X msg 362 183 60;
#X msg 317 183 59;
#N canvas 0 23 524 475 AD-envelope-auto 0;
#X obj 132 300 line~;
#X msg 199 263 0 \$1;
#X obj 133 226 f;
#X obj 204 236 f;
#X obj 128 35 inlet;
#X obj 132 372 outlet~;
#X obj 206 31 inlet;
#X obj 344 20 inlet;
#X text 206 12 attack time;
#X text 343 -1 decay time;
#X obj 331 114 loadbang;
#X msg 337 167 100;
#X msg 299 142 10;
#X text 376 149 initial values;
#X obj 201 122 delay 100;
#X text 115 13 trigger;
#X obj 475 36 inlet;
#X text 474 14 on/sustain time;
#X msg 132 256 0.1 \$1;
#X obj 290 49 t b f;
#X obj 259 91 +;
#X connect 0 0 5 0;
#X connect 1 0 0 0;
#X connect 2 0 18 0;
#X connect 3 0 1 0;
#X connect 4 0 14 0;
#X connect 4 0 2 0;
#X connect 6 0 2 1;
#X connect 6 0 20 0;
#X connect 7 0 3 1;
#X connect 10 0 11 0;
#X connect 10 0 12 0;
#X connect 11 0 3 1;
#X connect 12 0 2 1;
#X connect 12 0 20 0;
#X connect 14 0 3 0;
#X connect 16 0 19 0;
#X connect 18 0 0 0;
#X connect 19 0 20 0;
#X connect 19 1 20 1;
#X connect 20 0 14 1;
#X restore 204 456 pd AD-envelope-auto;
#X floatatom 354 373 5 0 0 0 - - -;
#X floatatom 353 400 5 0 0 0 - - -;
#X text 398 373 attack time;
#X text 405 403 decay time;
#X floatatom 353 425 5 0 0 0 - - -;
#X text 405 428 sustain time;
#X obj 204 386 bng 25 250 50 0 empty empty empty 17 7 0 10 -262144
-1 -1;
#X text 239 389 trigger;
#X text 179 70 <- only pass integer portion;
#X connect 1 0 11 0;
#X connect 2 0 0 0;
#X connect 2 0 0 1;
#X connect 4 0 18 0;
#X connect 4 0 5 0;
#X connect 5 0 1 0;
#X connect 6 0 19 0;
#X connect 7 0 4 0;
#X connect 8 0 4 0;
#X connect 11 0 2 0;
#X connect 12 0 4 0;
#X connect 13 0 4 0;
#X connect 14 0 4 0;
#X connect 15 0 4 0;
#X connect 16 0 17 0;
#X connect 17 0 6 0;
#X connect 18 0 29 0;
#X connect 19 0 12 0;
#X connect 19 1 13 0;
#X connect 19 2 14 0;
#X connect 19 3 15 0;
#X connect 19 4 7 0;
#X connect 19 5 8 0;
#X connect 19 6 21 0;
#X connect 19 7 20 0;
#X connect 20 0 4 0;
#X connect 21 0 4 0;
#X connect 22 0 2 1;
#X connect 23 0 22 1;
#X connect 24 0 22 2;
#X connect 27 0 22 3;
#X connect 29 0 22 0;
