#N canvas 492 75 742 797 12;
#X obj 102 700 dac~;
#X floatatom 98 420 5 0 0 0 - - -;
#X obj 100 628 *~;
#X obj 203 425 tgl 15 0 empty empty empty 17 7 0 10 -262144 -1 -1 0
1;
#X obj 153 590 line~;
#X floatatom 261 475 5 0 0 0 - - -;
#X obj 155 487 sel 1 0;
#X msg 214 562 0 \$1;
#X floatatom 261 513 5 0 0 0 - - -;
#X text 305 475 attack time;
#X text 313 516 decay time;
#X obj 154 516 f;
#X obj 219 535 f;
#X text 228 421 on/off;
#X text 30 421 frequency;
#X obj 101 250 hsl 128 15 36 84 0 0 empty empty empty -2 -8 0 10 -262144
-1 -1 4233 1;
#X obj 97 393 mtof;
#X floatatom 98 367 5 0 0 0 - - -;
#X obj 98 342 i;
#X obj 103 100 key;
#X floatatom 159 122 5 0 0 0 - - -;
#X obj 117 147 sel 97 115 100 102 106 107 108 59;
#X msg 62 184 45;
#X msg 107 184 48;
#X msg 149 183 50;
#X msg 189 183 52;
#X msg 234 183 55;
#X msg 276 182 57;
#X msg 317 183 60;
#X msg 362 183 62;
#X text 140 31 Turn keystrokes 'asdf jkl \; ' into note numbers;
#X text 149 97 output ASCII key value;
#X text 358 145 send bang on specific keys;
#X text 409 183 < these numbers represent the notes to play it defines
the scale;
#X msg 153 546 0.2 \$1;
#X msg 190 336 1;
#X msg 208 385 0;
#X obj 195 295 bng 15 250 50 0 empty empty empty 17 7 0 10 -262144
-1 -1;
#X obj 98 465 phasor~;
#X floatatom 261 334 5 0 0 0 - - -;
#X obj 208 360 delay 50;
#X connect 1 0 38 0;
#X connect 2 0 0 0;
#X connect 2 0 0 1;
#X connect 3 0 6 0;
#X connect 4 0 2 1;
#X connect 5 0 11 1;
#X connect 6 0 11 0;
#X connect 6 1 12 0;
#X connect 7 0 4 0;
#X connect 8 0 12 1;
#X connect 11 0 34 0;
#X connect 12 0 7 0;
#X connect 15 0 18 0;
#X connect 15 0 37 0;
#X connect 16 0 1 0;
#X connect 17 0 16 0;
#X connect 18 0 17 0;
#X connect 19 0 20 0;
#X connect 19 0 21 0;
#X connect 21 0 22 0;
#X connect 21 1 23 0;
#X connect 21 2 24 0;
#X connect 21 3 25 0;
#X connect 21 4 26 0;
#X connect 21 5 27 0;
#X connect 21 6 28 0;
#X connect 21 7 29 0;
#X connect 22 0 15 0;
#X connect 23 0 15 0;
#X connect 24 0 15 0;
#X connect 25 0 15 0;
#X connect 26 0 15 0;
#X connect 27 0 15 0;
#X connect 28 0 15 0;
#X connect 29 0 15 0;
#X connect 34 0 4 0;
#X connect 35 0 3 0;
#X connect 36 0 3 0;
#X connect 37 0 35 0;
#X connect 37 0 40 0;
#X connect 38 0 2 0;
#X connect 39 0 40 1;
#X connect 40 0 36 0;
