#N canvas 1658 36 1273 587 12;
#N canvas 0 22 450 278 (subpatch) 0;
#X array scale 8 float 3;
#A 0 0 2 3 5 7 8 10 12;
#X coords 0 24 8 0 200 140 1 0 0;
#X restore 238 113 graph;
#X floatatom 542 383 5 0 0 0 - - -;
#X floatatom 542 438 5 0 0 0 - - -;
#X obj 542 323 bng 15 250 50 0 empty empty empty 17 7 0 10 -262144
-1 -1;
#X obj 542 472 + 60;
#X obj 542 413 tabread scale;
#X obj 542 356 random 8;
#X text 646 116 major scale;
#X text 644 159 minor scale;
#X text 232 69 select from a scale defined by intervals;
#X floatatom 542 514 5 0 0 0 - - -;
#X text 585 471 < set root note offset aka Transpose;
#X obj 269 325 hsl 128 15 0 8 0 0 empty empty empty -2 -8 0 10 -262144
-1 -1 12700 1;
#X floatatom 266 347 5 0 0 0 - - -;
#X obj 266 370 tabread scale;
#X floatatom 266 394 5 0 0 0 - - -;
#X obj 266 417 + 48;
#X floatatom 266 441 5 0 0 0 - - -;
#X obj 266 464 mtof;
#X obj 267 512 osc~;
#X msg 454 111 \; scale 0 0 2 4 5 7 9 11 12;
#X msg 454 147 \; scale 0 0 2 3 5 7 8 10 12;
#X connect 1 0 5 0;
#X connect 2 0 4 0;
#X connect 3 0 6 0;
#X connect 4 0 10 0;
#X connect 5 0 2 0;
#X connect 6 0 1 0;
#X connect 12 0 13 0;
#X connect 13 0 14 0;
#X connect 14 0 15 0;
#X connect 15 0 16 0;
#X connect 16 0 17 0;
#X connect 17 0 18 0;
#X connect 18 0 19 0;
