#N canvas 1681 -62 1146 855 12;
#X obj 208 69 openpanel;
#X obj 201 492 dac~;
#X obj 206 50 bng 15 250 50 0 empty empty empty 17 7 0 10 -262144 -1
-1;
#X symbolatom 204 198 80 0 0 0 - - -;
#X obj 159 114 bng 15 250 50 0 empty empty empty 17 7 0 10 -262144
-1 -1;
#X obj 207 268 readsf~ 2;
#X msg 161 257 0;
#X obj 160 152 t b b;
#X msg 160 229 1;
#X text 227 49 <- click to select sound file;
#X text 281 268 <- connect to trigger to loop;
#X text 184 110 <- trigger sound;
#X obj 269 337 vsl 25 75 0 0.2 0 0 empty empty empty 0 -9 0 10 -262144
-1 -1 13900 1;
#X obj 206 431 *~;
#X msg 207 237 open \$1;
#X obj 232 165 bng 15 250 50 0 empty empty empty 17 7 0 10 -262144
-1 -1;
#X connect 0 0 3 0;
#X connect 2 0 0 0;
#X connect 3 0 14 0;
#X connect 4 0 7 0;
#X connect 5 0 13 0;
#X connect 6 0 5 0;
#X connect 7 0 8 0;
#X connect 7 1 3 0;
#X connect 8 0 5 0;
#X connect 12 0 13 1;
#X connect 13 0 1 0;
#X connect 13 0 1 1;
#X connect 14 0 5 0;
#X connect 15 0 3 0;
