#N canvas 2010 191 729 658 12;
#X obj 118 237 tgl 15 0 empty empty empty 17 7 0 10 -262144 -1 -1 0
1;
#X obj 334 85 vsl 15 128 0 1 0 0 empty empty empty 0 -9 0 10 -262144
-1 -1 1300 1;
#X floatatom 334 221 5 0 0 0 - - -;
#X obj 202 85 vsl 15 128 0 500 0 0 empty empty empty 0 -9 0 10 -262144
-1 -1 2900 1;
#X obj 259 84 vsl 15 128 0 500 0 0 empty empty empty 0 -9 0 10 -262144
-1 -1 6200 1;
#X obj 399 86 vsl 15 128 0 1000 0 0 empty empty empty 0 -9 0 10 -262144
-1 -1 3400 1;
#X floatatom 396 228 5 0 0 0 - - -;
#X floatatom 258 223 5 0 0 0 - - -;
#X floatatom 201 224 5 0 0 0 - - -;
#X obj 202 459 vline~;
#X obj 204 386 pack f f f f;
#X obj 119 280 sel 1 0;
#X obj 358 395 pack f f;
#X msg 359 427 0 \$2;
#X obj 160 516 *~;
#X obj 161 570 *~ 0.2;
#X obj 159 623 dac~;
#X floatatom 68 374 5 0 0 0 - - -;
#X text 190 54 attack;
#X text 246 54 decay;
#X text 317 53 sustain;
#X text 383 52 release;
#X msg 204 416 1 \$2 \, \$4 \$3 \$2;
#X obj 68 403 phasor~ 200;
#X connect 0 0 11 0;
#X connect 1 0 2 0;
#X connect 2 0 10 3;
#X connect 3 0 8 0;
#X connect 4 0 7 0;
#X connect 5 0 6 0;
#X connect 6 0 12 1;
#X connect 7 0 10 2;
#X connect 8 0 10 1;
#X connect 9 0 14 1;
#X connect 10 0 22 0;
#X connect 11 0 10 0;
#X connect 11 1 12 0;
#X connect 12 0 13 0;
#X connect 13 0 9 0;
#X connect 14 0 15 0;
#X connect 15 0 16 0;
#X connect 15 0 16 1;
#X connect 17 0 23 0;
#X connect 22 0 9 0;
#X connect 23 0 14 0;
