#N canvas 492 205 560 608 12;
#X floatatom 136 143 5 0 0 0 - - -;
#X text 68 144 frequency;
#X obj 136 188 phasor~;
#X obj 138 333 expr~ $v1 > $v2;
#X floatatom 218 260 5 0 0 0 - - -;
#X obj 218 282 / 100;
#X text 149 355 PWM;
#X obj 135 115 inlet;
#X obj 252 201 loadbang;
#X obj 241 142 inlet;
#X text 304 141 % pulse width;
#X obj 138 484 outlet~;
#X msg 252 225 1;
#X connect 0 0 2 0;
#X connect 2 0 3 0;
#X connect 3 0 11 0;
#X connect 4 0 5 0;
#X connect 5 0 3 1;
#X connect 7 0 0 0;
#X connect 8 0 12 0;
#X connect 9 0 4 0;
#X connect 12 0 4 0;
