#N canvas 492 205 560 608 12;
#X obj 244 542 dac~;
#X floatatom 235 177 5 0 0 0 - - -;
#X obj 242 470 *~;
#X obj 391 178 tgl 15 0 empty empty empty 17 7 0 10 -262144 -1 -1 0
1;
#X obj 391 346 line~;
#X floatatom 499 231 5 0 0 0 - - -;
#X obj 393 243 sel 1 0;
#X msg 391 302 1 \$1;
#X msg 452 318 0 \$1;
#X floatatom 499 269 5 0 0 0 - - -;
#X text 543 231 attack time;
#X text 551 272 decay time;
#X obj 392 272 f;
#X obj 457 291 f;
#X text 421 175 on/off;
#X text 167 178 frequency;
#X obj 238 77 hsl 128 15 36 84 0 0 empty empty empty -2 -8 0 10 -262144
-1 -1 4400 1;
#X obj 234 150 mtof;
#X floatatom 235 124 5 0 0 0 - - -;
#X obj 235 99 i;
#X text 287 122 MIDI note number (60 = middle C);
#X obj 235 222 phasor~;
#X obj 235 245 *~ 2;
#X obj 235 268 -~ 1;
#X text 35 270 This will make it go -1 to 1;
#X text 27 222 phasor only goes from 0 to 1;
#X connect 1 0 21 0;
#X connect 2 0 0 0;
#X connect 2 0 0 1;
#X connect 3 0 6 0;
#X connect 4 0 2 1;
#X connect 5 0 12 1;
#X connect 6 0 12 0;
#X connect 6 1 13 0;
#X connect 7 0 4 0;
#X connect 8 0 4 0;
#X connect 9 0 13 1;
#X connect 12 0 7 0;
#X connect 13 0 8 0;
#X connect 16 0 19 0;
#X connect 17 0 1 0;
#X connect 18 0 17 0;
#X connect 19 0 18 0;
#X connect 21 0 22 0;
#X connect 22 0 23 0;
#X connect 23 0 2 0;
