#N canvas 521 194 560 608 12;
#X floatatom 139 205 5 0 0 0 - - -;
#X text 71 206 frequency;
#X obj 139 249 phasor~;
#X text 149 309 Square Wave;
#X obj 138 333 expr~ $v1 > 0.5;
#X obj 139 395 outlet~;
#X obj 137 178 inlet;
#X connect 0 0 2 0;
#X connect 2 0 4 0;
#X connect 4 0 5 0;
#X connect 6 0 0 0;
