#N canvas 492 205 560 608 12;
#X obj 140 556 dac~;
#X floatatom 136 143 5 0 0 0 - - -;
#X obj 138 484 *~;
#X obj 337 137 tgl 15 0 empty empty empty 17 7 0 10 -262144 -1 -1 0
1;
#X obj 337 305 line~;
#X floatatom 445 190 5 0 0 0 - - -;
#X obj 339 202 sel 1 0;
#X msg 337 261 1 \$1;
#X msg 398 277 0 \$1;
#X floatatom 445 228 5 0 0 0 - - -;
#X text 489 190 attack time;
#X text 497 231 decay time;
#X obj 338 231 f;
#X obj 403 250 f;
#X text 367 134 on/off;
#X text 68 144 frequency;
#X obj 139 43 hsl 128 15 36 84 0 0 empty empty empty -2 -8 0 10 -262144
-1 -1 0 1;
#X obj 135 116 mtof;
#X floatatom 136 90 5 0 0 0 - - -;
#X obj 136 65 i;
#X text 188 88 MIDI note number (60 = middle C);
#X obj 136 188 phasor~;
#X obj 138 333 expr~ $v1 > $v2;
#X floatatom 218 260 5 0 0 0 - - -;
#X obj 218 282 / 100;
#X text 149 355 PWM;
#X connect 1 0 21 0;
#X connect 2 0 0 0;
#X connect 2 0 0 1;
#X connect 3 0 6 0;
#X connect 4 0 2 1;
#X connect 5 0 12 1;
#X connect 6 0 12 0;
#X connect 6 1 13 0;
#X connect 7 0 4 0;
#X connect 8 0 4 0;
#X connect 9 0 13 1;
#X connect 12 0 7 0;
#X connect 13 0 8 0;
#X connect 16 0 19 0;
#X connect 17 0 1 0;
#X connect 18 0 17 0;
#X connect 19 0 18 0;
#X connect 21 0 22 0;
#X connect 22 0 2 0;
#X connect 23 0 24 0;
#X connect 24 0 22 1;
