#N canvas 492 205 738 608 12;
#X text 193 183 frequency;
#X obj 272 310 phasor~;
#X obj 272 356 -~ 1;
#X obj 337 309 phasor~;
#X obj 337 355 -~ 1;
#X msg 390 273 0;
#X floatatom 270 248 5 0 0 0 - - -;
#X obj 335 283 * -1;
#X obj 272 386 clip~ 0 1;
#X obj 337 416 clip~ 0 1;
#X obj 300 437 +~;
#X obj 272 333 *~ 2;
#X obj 337 332 *~ 2;
#X obj 299 459 *~ 2;
#X obj 299 482 -~ 1;
#X obj 386 233 loadbang;
#X obj 266 185 inlet;
#X obj 302 531 outlet~;
#X connect 1 0 11 0;
#X connect 2 0 8 0;
#X connect 3 0 12 0;
#X connect 4 0 9 0;
#X connect 5 0 3 1;
#X connect 5 0 1 1;
#X connect 6 0 7 0;
#X connect 6 0 1 0;
#X connect 7 0 3 0;
#X connect 8 0 10 0;
#X connect 9 0 10 1;
#X connect 10 0 13 0;
#X connect 11 0 2 0;
#X connect 12 0 4 0;
#X connect 13 0 14 0;
#X connect 14 0 17 0;
#X connect 15 0 5 0;
#X connect 16 0 6 0;
