#N canvas 492 205 738 608 12;
#X obj 156 396 dac~;
#X floatatom 136 138 5 0 0 0 - - -;
#X obj 154 324 *~;
#X obj 341 162 tgl 15 0 empty empty empty 17 7 0 10 -262144 -1 -1 0
1;
#X obj 341 330 line~;
#X floatatom 449 215 5 0 0 0 - - -;
#X obj 343 227 sel 1 0;
#X msg 341 286 1 \$1;
#X msg 402 302 0 \$1;
#X floatatom 449 253 5 0 0 0 - - -;
#X text 493 215 attack time;
#X text 501 256 decay time;
#X obj 342 256 f;
#X obj 407 275 f;
#X text 371 159 on/off;
#X text 68 139 frequency;
#X obj 139 38 hsl 128 15 36 84 0 0 empty empty empty -2 -8 0 10 -262144
-1 -1 3700 1;
#X obj 135 111 mtof;
#X floatatom 136 85 5 0 0 0 - - -;
#X obj 136 60 i;
#X text 188 83 MIDI note number (60 = middle C);
#N canvas 0 23 638 546 triangle 0;
#X obj 138 235 phasor~;
#X obj 138 281 -~ 1;
#X obj 203 234 phasor~;
#X obj 203 280 -~ 1;
#X msg 256 198 0;
#X floatatom 136 173 5 0 0 0 - - -;
#X obj 201 208 * -1;
#X obj 138 311 clip~ 0 1;
#X obj 203 341 clip~ 0 1;
#X obj 166 362 +~;
#X obj 138 258 *~ 2;
#X obj 203 257 *~ 2;
#X obj 165 384 *~ 2;
#X obj 165 407 -~ 1;
#X obj 252 158 loadbang;
#X obj 132 110 inlet;
#X obj 168 456 outlet~;
#X connect 0 0 10 0;
#X connect 1 0 7 0;
#X connect 2 0 11 0;
#X connect 3 0 8 0;
#X connect 4 0 2 1;
#X connect 4 0 0 1;
#X connect 5 0 6 0;
#X connect 5 0 0 0;
#X connect 6 0 2 0;
#X connect 7 0 9 0;
#X connect 8 0 9 1;
#X connect 9 0 12 0;
#X connect 10 0 1 0;
#X connect 11 0 3 0;
#X connect 12 0 13 0;
#X connect 13 0 16 0;
#X connect 14 0 4 0;
#X connect 15 0 5 0;
#X restore 144 247 pd triangle;
#N canvas 0 23 450 300 scope 1;
#X obj 172 125 metro 200;
#X obj 173 100 tgl 15 0 empty empty empty 17 7 0 10 -262144 -1 -1 1
1;
#X obj 171 151 tabwrite~ \$0-array1;
#X obj 168 71 loadbang;
#X obj 71 72 inlet~;
#X connect 0 0 2 0;
#X connect 1 0 0 0;
#X connect 3 0 1 0;
#X connect 4 0 2 0;
#X restore 29 284 pd scope;
#X obj 28 309 table;
#X connect 1 0 21 0;
#X connect 2 0 0 0;
#X connect 2 0 0 1;
#X connect 3 0 6 0;
#X connect 4 0 2 1;
#X connect 5 0 12 1;
#X connect 6 0 12 0;
#X connect 6 1 13 0;
#X connect 7 0 4 0;
#X connect 8 0 4 0;
#X connect 9 0 13 1;
#X connect 12 0 7 0;
#X connect 13 0 8 0;
#X connect 16 0 19 0;
#X connect 17 0 1 0;
#X connect 18 0 17 0;
#X connect 19 0 18 0;
#X connect 21 0 2 0;
#X connect 21 0 22 0;
