#N canvas 1794 109 450 300 12;
#X obj 97 6 inlet;
#X obj 97 29 bng 15 250 50 0 empty empty empty 17 7 0 10 -262144 -1
-1;
#X obj 93 138 line~;
#X msg 37 76 1 10;
#X msg 97 87 0 100;
#X obj 93 161 outlet~;
#X obj 98 62 delay 100;
#X connect 0 0 1 0;
#X connect 1 0 3 0;
#X connect 1 0 6 0;
#X connect 2 0 5 0;
#X connect 3 0 2 0;
#X connect 4 0 2 0;
#X connect 6 0 4 0;
