#N canvas 0 73 1418 787 12;
#X obj 172 153 bng 15 250 50 0 empty empty empty 17 7 0 10 -262144
-1 -1;
#X floatatom 88 246 5 0 0 0 - - -;
#X obj 98 281 osc~;
#X msg 193 197 0.1 5;
#X msg 240 241 0 50;
#X obj 191 294 line~;
#X obj 240 210 delay 50;
#X obj 133 378 *~;
#X obj 125 407 dac~;
#X obj 172 130 metro 150;
#X obj 171 111 tgl 15 0 empty empty empty 17 7 0 10 -262144 -1 -1 0
1;
#X obj 88 203 random 1000;
#X floatatom 233 110 5 0 0 0 - - -;
#N canvas 0 22 450 278 (subpatch) 0;
#X array scale 7 float 3;
#A 0 2 4 5 7 9 11 12;
#X coords 0 24 7 0 200 140 1 0 0;
#X restore 463 60 graph;
#X floatatom 484 335 5 0 0 0 - - -;
#X floatatom 484 383 5 0 0 0 - - -;
#X obj 484 268 bng 15 250 50 0 empty empty empty 17 7 0 10 -262144
-1 -1;
#X obj 484 406 + 60;
#X msg 679 94 \; scale 0 2 3 5 7 8 10 12;
#X obj 485 450 mtof;
#X obj 485 473 osc~;
#X obj 552 525 line~;
#X msg 593 497 0 50;
#X obj 594 474 delay 25;
#X obj 534 642 dac~;
#X obj 583 445 bng 15 250 50 0 empty empty empty 17 7 0 10 -262144
-1 -1;
#X obj 484 358 tabread scale;
#X obj 482 226 tgl 15 0 empty empty empty 17 7 0 10 -262144 -1 -1 1
1;
#X obj 482 246 metro 150;
#X text 107 55 randomly select a frequency;
#X obj 484 308 random 8;
#X msg 679 58 \; scale 0 2 4 5 7 9 11 12;
#X text 871 63 major scale;
#X text 869 106 minor scale;
#X text 457 16 randomly select from a scale;
#X obj 534 571 *~ 0.2;
#X msg 552 473 1 5;
#X connect 0 0 6 0;
#X connect 0 0 3 0;
#X connect 0 0 11 0;
#X connect 1 0 2 0;
#X connect 2 0 7 0;
#X connect 3 0 5 0;
#X connect 4 0 5 0;
#X connect 5 0 7 1;
#X connect 6 0 4 0;
#X connect 7 0 8 0;
#X connect 7 0 8 1;
#X connect 9 0 0 0;
#X connect 10 0 9 0;
#X connect 11 0 1 0;
#X connect 12 0 9 1;
#X connect 14 0 26 0;
#X connect 15 0 17 0;
#X connect 16 0 30 0;
#X connect 17 0 19 0;
#X connect 17 0 25 0;
#X connect 19 0 20 0;
#X connect 20 0 35 0;
#X connect 21 0 35 1;
#X connect 22 0 21 0;
#X connect 23 0 22 0;
#X connect 25 0 36 0;
#X connect 25 0 23 0;
#X connect 26 0 15 0;
#X connect 27 0 28 0;
#X connect 28 0 16 0;
#X connect 30 0 14 0;
#X connect 35 0 24 0;
#X connect 35 0 24 1;
#X connect 36 0 21 0;
