#N canvas 101 57 1136 677 12;
#N canvas 0 22 450 278 (subpatch) 0;
#X array scale 7 float 3;
#A 0 2 4 5 7 9 11 12;
#X coords 0 24 7 0 200 140 1 0 0;
#X restore 47 104 graph;
#X msg 264 183 \; scale 0 2 3 5 7 8 10 12;
#X msg 264 145 \; scale 0 2 4 5 7 9 11 12;
#X text 445 190 Major;
#X text 446 156 Minor;
#X floatatom 695 17 5 0 0 0 - - -;
#X obj 743 49 / 8;
#X obj 695 50 mod 8;
#X floatatom 695 73 5 0 0 0 - - -;
#X floatatom 743 72 5 0 0 0 - - -;
#X obj 591 28 random 3;
#X obj 591 52 - 1;
#X floatatom 591 75 5 0 0 0 - - -;
#X obj 591 8 bng 15 250 50 0 empty empty empty 17 7 0 10 -262144 -1
-1;
#X obj 542 417 mtof;
#X floatatom 542 393 5 0 0 0 - - -;
#X obj 631 530 *~;
#X obj 619 563 dac~;
#X obj 657 465 bng 15 250 50 0 empty empty empty 17 7 0 10 -262144
-1 -1;
#X obj 588 209 tgl 15 0 empty empty empty 17 7 0 10 -262144 -1 -1 0
1;
#X obj 588 227 metro 200;
#N canvas 231 80 819 585 stepWise-sub-patch 0;
#X obj 240 79 random 3;
#X obj 240 103 - 1;
#X floatatom 240 126 5 0 0 0 - - -;
#X obj 312 51 bng 15 250 50 0 empty empty empty 17 7 0 10 -262144 -1
-1;
#X floatatom 193 332 5 0 0 0 - - -;
#X obj 331 345 * 12;
#X obj 239 400 +;
#X obj 331 248 / 8;
#X obj 193 256 mod 8;
#X floatatom 331 271 5 0 0 0 - - -;
#X floatatom 193 279 5 0 0 0 - - -;
#X floatatom 244 209 5 0 0 0 - - -;
#X obj 331 294 i;
#X floatatom 331 322 5 0 4 0 - - -;
#X obj 285 165 i;
#X obj 243 183 +;
#X obj 193 308 tabread scale;
#X obj 193 354 + 48;
#X text 342 138 add / subtract from the last note played;
#X obj 305 9 inlet;
#X obj 239 423 outlet;
#X text 375 322 octave select;
#X connect 0 0 1 0;
#X connect 1 0 2 0;
#X connect 2 0 15 0;
#X connect 3 0 14 0;
#X connect 3 0 0 0;
#X connect 4 0 17 0;
#X connect 5 0 6 1;
#X connect 6 0 20 0;
#X connect 7 0 9 0;
#X connect 8 0 10 0;
#X connect 9 0 12 0;
#X connect 10 0 16 0;
#X connect 11 0 7 0;
#X connect 11 0 8 0;
#X connect 11 0 14 1;
#X connect 12 0 13 0;
#X connect 13 0 5 0;
#X connect 14 0 15 1;
#X connect 15 0 11 0;
#X connect 16 0 4 0;
#X connect 17 0 6 0;
#X connect 19 0 3 0;
#X restore 542 369 pd stepWise-sub-patch;
#N canvas 0 23 450 300 AR-envelope-sub-patch 0;
#X obj 104 126 line~;
#X msg 104 74 1 5;
#X msg 145 98 0 50;
#X obj 146 75 delay 25;
#X obj 113 26 inlet;
#X obj 104 149 outlet~;
#X connect 0 0 5 0;
#X connect 1 0 0 0;
#X connect 2 0 0 0;
#X connect 3 0 2 0;
#X connect 4 0 1 0;
#X connect 4 0 3 0;
#X restore 657 486 pd AR-envelope-sub-patch;
#X obj 587 250 s pulse;
#X obj 540 338 r pulse;
#X obj 671 427 r pulse;
#X obj 541 447 osc~;
#X obj 1033 387 bng 15 250 50 0 empty empty empty 17 7 0 10 -262144
-1 -1;
#X text 1103 388 reset;
#X obj 1143 389 bng 15 250 50 0 empty empty empty 17 7 0 10 -262144
-1 -1;
#N canvas 464 73 976 300 sequenceCount 0;
#X obj 142 140 +;
#X obj 123 177 f;
#X msg 140 117 1;
#X obj 108 85 t b b;
#X msg 163 87 0;
#X floatatom 123 246 5 0 0 0 - - -;
#X obj 123 226 + 1;
#X obj 89 36 inlet;
#X obj 177 34 inlet;
#X obj 122 276 outlet;
#X text 13 11 send bang to step;
#X text 180 4 send bang to reset;
#X text 184 276 outputs a count between 1-16;
#X obj 123 203 mod 8;
#X connect 0 0 1 1;
#X connect 1 0 0 1;
#X connect 1 0 13 0;
#X connect 2 0 0 0;
#X connect 3 0 1 0;
#X connect 3 1 2 0;
#X connect 4 0 0 0;
#X connect 4 0 1 0;
#X connect 5 0 9 0;
#X connect 6 0 5 0;
#X connect 7 0 3 0;
#X connect 8 0 4 0;
#X connect 13 0 6 0;
#X restore 1033 429 pd sequenceCount;
#X floatatom 1033 452 5 0 0 0 - - -;
#X obj 1033 326 r pulse;
#X obj 1033 361 spigot;
#X obj 1094 328 tgl 15 0 empty empty empty 17 7 0 10 -262144 -1 -1
0 1;
#X obj 588 114 key;
#X obj 588 137 sel 32;
#X obj 1033 522 i;
#X obj 1051 501 tgl 15 0 empty empty empty 17 7 0 10 -262144 -1 -1
0 1;
#X obj 1078 522 i;
#X obj 1096 501 tgl 15 0 empty empty empty 17 7 0 10 -262144 -1 -1
0 1;
#X obj 1123 521 i;
#X obj 1141 501 tgl 15 0 empty empty empty 17 7 0 10 -262144 -1 -1
0 1;
#X obj 1168 522 i;
#X obj 1186 501 tgl 15 0 empty empty empty 17 7 0 10 -262144 -1 -1
0 1;
#X obj 1214 522 i;
#X obj 1232 501 tgl 15 0 empty empty empty 17 7 0 10 -262144 -1 -1
0 1;
#X obj 1259 522 i;
#X obj 1277 501 tgl 15 0 empty empty empty 17 7 0 10 -262144 -1 -1
0 1;
#X obj 1304 522 i;
#X obj 1322 501 tgl 15 0 empty empty empty 17 7 0 10 -262144 -1 -1
0 1;
#X obj 1349 522 i;
#X obj 1367 501 tgl 15 0 empty empty empty 17 7 0 10 -262144 -1 -1
0 1;
#X obj 1145 574 bng 15 250 50 0 empty empty empty 17 7 0 10 -262144
-1 -1;
#N canvas 0 23 450 300 AR-envelope-sub-patch 0;
#X obj 104 126 line~;
#X msg 104 74 1 5;
#X msg 145 98 0 50;
#X obj 146 75 delay 25;
#X obj 113 26 inlet;
#X obj 104 149 outlet~;
#X connect 0 0 5 0;
#X connect 1 0 0 0;
#X connect 2 0 0 0;
#X connect 3 0 2 0;
#X connect 4 0 1 0;
#X connect 4 0 3 0;
#X restore 1145 593 pd AR-envelope-sub-patch;
#X obj 1020 594 loadbang;
#X msg 1020 617 36;
#X msg 1054 617 48;
#X obj 1020 665 -~ 0.5;
#X obj 1098 700 *~;
#X obj 1098 723 dac~;
#X obj 1033 545 sel 1;
#X obj 1077 544 sel 1;
#X obj 1123 544 sel 1;
#X obj 1168 545 sel 1;
#X obj 1214 545 sel 1;
#X obj 1259 545 sel 1;
#X obj 1304 545 sel 1;
#X obj 1349 545 sel 1;
#X obj 1033 474 sel 1 2 3 4 5 6 7 8, f 52;
#X obj 1020 642 phasor~;
#X obj 588 160 spigot;
#X obj 650 162 tgl 15 0 empty empty empty 17 7 0 10 -262144 -1 -1 0
1;
#X text 669 160 Enable to use spacebar for start and stop;
#X connect 5 0 6 0;
#X connect 5 0 7 0;
#X connect 6 0 9 0;
#X connect 7 0 8 0;
#X connect 10 0 11 0;
#X connect 11 0 12 0;
#X connect 13 0 10 0;
#X connect 14 0 26 0;
#X connect 15 0 14 0;
#X connect 16 0 17 0;
#X connect 16 0 17 1;
#X connect 18 0 22 0;
#X connect 19 0 20 0;
#X connect 20 0 23 0;
#X connect 21 0 15 0;
#X connect 22 0 16 1;
#X connect 24 0 21 0;
#X connect 25 0 18 0;
#X connect 26 0 16 0;
#X connect 27 0 30 0;
#X connect 29 0 30 1;
#X connect 30 0 31 0;
#X connect 31 0 69 0;
#X connect 32 0 33 0;
#X connect 33 0 27 0;
#X connect 34 0 33 1;
#X connect 35 0 36 0;
#X connect 36 0 71 0;
#X connect 37 0 61 0;
#X connect 38 0 37 1;
#X connect 39 0 62 0;
#X connect 40 0 39 1;
#X connect 41 0 63 0;
#X connect 42 0 41 1;
#X connect 43 0 64 0;
#X connect 44 0 43 1;
#X connect 45 0 65 0;
#X connect 46 0 45 1;
#X connect 47 0 66 0;
#X connect 48 0 47 1;
#X connect 49 0 67 0;
#X connect 50 0 49 1;
#X connect 51 0 68 0;
#X connect 52 0 51 1;
#X connect 53 0 54 0;
#X connect 54 0 59 1;
#X connect 55 0 56 0;
#X connect 56 0 70 0;
#X connect 57 0 70 0;
#X connect 58 0 59 0;
#X connect 59 0 60 0;
#X connect 61 0 53 0;
#X connect 62 0 53 0;
#X connect 63 0 53 0;
#X connect 64 0 53 0;
#X connect 65 0 53 0;
#X connect 66 0 53 0;
#X connect 67 0 53 0;
#X connect 68 0 53 0;
#X connect 69 0 37 0;
#X connect 69 1 39 0;
#X connect 69 2 41 0;
#X connect 69 3 43 0;
#X connect 69 4 45 0;
#X connect 69 5 47 0;
#X connect 69 6 49 0;
#X connect 69 7 51 0;
#X connect 70 0 58 0;
#X connect 71 0 19 0;
#X connect 72 0 71 1;
#X coords 0 677 1 676 85 60 0;
