#N canvas 1602 -51 977 801 12;
#X obj 187 284 noise~;
#N canvas 0 23 704 611 pwm 0;
#X obj 126 72 phasor~;
#X obj 128 217 expr~ $v1 > $v2;
#X obj 129 29 inlet~;
#X obj 130 335 outlet~;
#X floatatom 241 128 5 0 100 0 - - -;
#X obj 241 150 / 100;
#X obj 236 61 inlet;
#X obj 128 240 *~ 2;
#X obj 128 263 -~ 1;
#X text 288 220 Like the squre wave only you can control the value
it compares to. remember phasor counts from 0 to 1 - since the input
is divided by 100 here its expecting that the value is between 0:100
;
#X connect 0 0 1 0;
#X connect 1 0 7 0;
#X connect 2 0 0 0;
#X connect 4 0 5 0;
#X connect 5 0 1 1;
#X connect 6 0 4 0;
#X connect 7 0 8 0;
#X connect 8 0 3 0;
#X restore 84 304 pd pwm;
#X floatatom 125 269 5 1 99 0 - - -;
#X floatatom 410 344 5 0 0 0 - - -;
#X floatatom 409 371 5 0 0 0 - - -;
#X text 454 344 attack time;
#X floatatom 409 396 5 0 0 0 - - -;
#N canvas 0 23 706 475 AR-envelope-auto 0;
#X obj 132 300 line~;
#X msg 199 263 0 \$1;
#X obj 133 226 f;
#X obj 204 236 f;
#X obj 128 35 inlet;
#X obj 132 372 outlet~;
#X obj 206 31 inlet;
#X obj 344 20 inlet;
#X text 206 12 attack time;
#X obj 331 114 loadbang;
#X msg 337 167 100;
#X msg 299 142 10;
#X text 376 149 initial values;
#X obj 201 122 delay 100;
#X text 115 13 trigger;
#X obj 475 36 inlet;
#X text 474 14 on/sustain time;
#X msg 132 256 0.1 \$1;
#X obj 290 49 t b f;
#X obj 259 91 +;
#X text 343 -1 release time;
#X connect 0 0 5 0;
#X connect 1 0 0 0;
#X connect 2 0 17 0;
#X connect 3 0 1 0;
#X connect 4 0 13 0;
#X connect 4 0 2 0;
#X connect 6 0 2 1;
#X connect 6 0 19 0;
#X connect 7 0 3 1;
#X connect 9 0 10 0;
#X connect 9 0 11 0;
#X connect 10 0 3 1;
#X connect 11 0 2 1;
#X connect 11 0 19 0;
#X connect 13 0 3 0;
#X connect 15 0 18 0;
#X connect 17 0 0 0;
#X connect 18 0 19 0;
#X connect 18 1 19 1;
#X connect 19 0 13 1;
#X restore 262 416 pd AR-envelope-auto;
#X text 461 374 release time;
#X text 461 399 release delay;
#X floatatom 408 214 5 0 0 0 - - -;
#X floatatom 407 241 5 0 0 0 - - -;
#X text 452 214 attack time;
#X floatatom 407 266 5 0 0 0 - - -;
#X obj 214 218 bng 25 250 50 0 empty empty empty 17 7 0 10 -262144
-1 -1;
#X text 241 219 trigger;
#N canvas 0 23 706 475 AR-envelope-auto 0;
#X obj 132 300 line~;
#X msg 199 263 0 \$1;
#X obj 133 226 f;
#X obj 204 236 f;
#X obj 128 35 inlet;
#X obj 132 372 outlet~;
#X obj 206 31 inlet;
#X obj 344 20 inlet;
#X text 206 12 attack time;
#X obj 331 114 loadbang;
#X msg 337 167 100;
#X msg 299 142 10;
#X text 376 149 initial values;
#X obj 201 122 delay 100;
#X text 115 13 trigger;
#X obj 475 36 inlet;
#X text 474 14 on/sustain time;
#X msg 132 256 0.1 \$1;
#X obj 290 49 t b f;
#X obj 259 91 +;
#X text 343 -1 release time;
#X connect 0 0 5 0;
#X connect 1 0 0 0;
#X connect 2 0 17 0;
#X connect 3 0 1 0;
#X connect 4 0 13 0;
#X connect 4 0 2 0;
#X connect 6 0 2 1;
#X connect 6 0 19 0;
#X connect 7 0 3 1;
#X connect 9 0 10 0;
#X connect 9 0 11 0;
#X connect 10 0 3 1;
#X connect 11 0 2 1;
#X connect 11 0 19 0;
#X connect 13 0 3 0;
#X connect 15 0 18 0;
#X connect 17 0 0 0;
#X connect 18 0 19 0;
#X connect 18 1 19 1;
#X connect 19 0 13 1;
#X restore 264 286 pd AR-envelope-auto;
#X text 459 244 release time;
#X text 459 269 release delay;
#X obj 232 332 *~;
#X obj 228 496 *~;
#X obj 246 714 *~;
#X obj 365 616 vsl 25 100 0 0.2 0 0 empty empty empty 0 -9 0 10 -262144
-1 -1 9900 1;
#X obj 227 756 dac~;
#X floatatom 66 270 5 0 0 0 - - -;
#X obj 43 23 metro 200;
#X obj 43 3 tgl 15 0 empty empty empty 17 7 0 10 -262144 -1 -1 0 1
;
#X obj 43 46 random 8;
#X obj 43 69 select 0 1 2 3 4 5 6 7, f 38;
#X msg 26 104 45;
#X msg 61 104 48;
#X msg 96 104 50;
#X obj 68 164 mtof;
#X msg 129 105 52;
#X msg 164 105 55;
#X msg 199 105 57;
#X msg 234 105 60;
#X msg 267 106 62;
#X obj 248 595 bob~, f 13;
#X obj 288 527 line~;
#X msg 288 501 5000 \, 500 100;
#X floatatom 336 571 5 0 0 0 - - -;
#X text 382 546 Q factor;
#X msg 336 545 2;
#X text 297 468 Filter sweep from 5000 to 500 in 100 ms;
#X floatatom 149 9 5 0 0 0 - - -;
#X connect 0 0 19 0;
#X connect 1 0 20 0;
#X connect 2 0 1 1;
#X connect 3 0 7 1;
#X connect 4 0 7 2;
#X connect 6 0 7 3;
#X connect 7 0 20 1;
#X connect 10 0 16 1;
#X connect 11 0 16 2;
#X connect 13 0 16 3;
#X connect 14 0 16 0;
#X connect 14 0 7 0;
#X connect 14 0 40 0;
#X connect 16 0 19 1;
#X connect 19 0 38 0;
#X connect 20 0 38 0;
#X connect 21 0 23 0;
#X connect 21 0 23 1;
#X connect 22 0 21 1;
#X connect 24 0 1 0;
#X connect 25 0 27 0;
#X connect 26 0 25 0;
#X connect 27 0 28 0;
#X connect 28 0 29 0;
#X connect 28 1 30 0;
#X connect 28 2 31 0;
#X connect 28 3 33 0;
#X connect 28 4 34 0;
#X connect 28 5 35 0;
#X connect 28 6 36 0;
#X connect 28 7 37 0;
#X connect 29 0 32 0;
#X connect 30 0 32 0;
#X connect 31 0 32 0;
#X connect 32 0 24 0;
#X connect 32 0 14 0;
#X connect 33 0 32 0;
#X connect 34 0 32 0;
#X connect 35 0 32 0;
#X connect 36 0 32 0;
#X connect 37 0 32 0;
#X connect 38 0 21 0;
#X connect 39 0 38 1;
#X connect 40 0 39 0;
#X connect 41 0 38 2;
#X connect 43 0 41 0;
#X connect 45 0 25 1;
